<mxfile host="Electron" modified="2024-05-15T10:07:44.688Z" agent="Mozilla/5.0 (Macintosh; Intel Mac OS X 10_15_7) AppleWebKit/537.36 (KHTML, like Gecko) draw.io/24.4.0 Chrome/120.0.6099.109 Electron/28.1.0 Safari/537.36" etag="Nfiewzy_5IlRiB7WRgUZ" version="24.4.0" type="device">
  <diagram name="Page-1" id="8Qw_1hSMklgCle8Wcz-8">
    <mxGraphModel dx="1026" dy="743" grid="1" gridSize="10" guides="1" tooltips="1" connect="1" arrows="1" fold="1" page="1" pageScale="1" pageWidth="1169" pageHeight="827" math="1" shadow="0">
      <root>
        <mxCell id="0" />
        <mxCell id="1" parent="0" />
        <mxCell id="LVMC560kpPJ9mfJXyLy--16" value="&lt;div&gt;&lt;b style=&quot;background-color: initial;&quot;&gt;pytorch input image tensor&lt;br&gt;(mini batch)&lt;br&gt;x&lt;sub&gt;in&lt;/sub&gt;&lt;/b&gt;&lt;/div&gt;&lt;div&gt;&lt;b style=&quot;background-color: initial;&quot;&gt;shape (1,1,n&lt;sub&gt;z&lt;/sub&gt;,n&lt;sub&gt;y&lt;/sub&gt;,n&lt;sub&gt;x&lt;/sub&gt;)&lt;/b&gt;&lt;/div&gt;&lt;div&gt;&lt;b style=&quot;background-color: initial;&quot;&gt;containing &quot;low quality&quot;&lt;br&gt;images&lt;/b&gt;&lt;/div&gt;" style="text;html=1;align=center;verticalAlign=middle;resizable=0;points=[];autosize=1;strokeColor=#666666;fillColor=#f5f5f5;fontColor=#333333;sketch=1;curveFitting=1;jiggle=2;" parent="1" vertex="1">
          <mxGeometry x="9" y="200" width="180" height="100" as="geometry" />
        </mxCell>
        <mxCell id="LVMC560kpPJ9mfJXyLy--36" value="&lt;div&gt;&lt;b&gt;prediction output image tensor&amp;nbsp;&lt;/b&gt;&lt;/div&gt;&lt;div&gt;&lt;b&gt;(mini batch)&lt;/b&gt;&lt;/div&gt;&lt;b&gt;x&lt;sub&gt;out&lt;/sub&gt;&lt;/b&gt;&lt;div&gt;&lt;b style=&quot;background-color: initial;&quot;&gt;shape (1,1,n&lt;sub&gt;z&lt;/sub&gt;,n&lt;sub&gt;y&lt;/sub&gt;,n&lt;sub&gt;x&lt;/sub&gt;)&lt;/b&gt;&lt;b style=&quot;background-color: initial;&quot;&gt;&lt;br&gt;&lt;/b&gt;&lt;/div&gt;&lt;div&gt;&lt;b style=&quot;background-color: initial;&quot;&gt;containing &quot;high quality&quot; images&lt;/b&gt;&lt;/div&gt;" style="text;html=1;align=center;verticalAlign=middle;resizable=0;points=[];autosize=1;fillColor=#f5f5f5;fontColor=#333333;strokeColor=#666666;sketch=1;curveFitting=1;jiggle=2;" parent="1" vertex="1">
          <mxGeometry x="1379" y="205" width="210" height="90" as="geometry" />
        </mxCell>
        <mxCell id="CQDy8fWoHzWiUnDKN8MW-14" value="" style="group;strokeWidth=2;" parent="1" vertex="1" connectable="0">
          <mxGeometry x="190" y="60" width="520" height="510" as="geometry" />
        </mxCell>
        <mxCell id="CQDy8fWoHzWiUnDKN8MW-13" value="" style="rounded=0;whiteSpace=wrap;html=1;fillColor=#f5f5f5;fontColor=#333333;strokeColor=#666666;" parent="CQDy8fWoHzWiUnDKN8MW-14" vertex="1">
          <mxGeometry x="20" width="500" height="510" as="geometry" />
        </mxCell>
        <mxCell id="LVMC560kpPJ9mfJXyLy--1" value="&lt;b style=&quot;font-size: 16px;&quot;&gt;custom pytorch&lt;br&gt;OSEM update&lt;br&gt;&amp;nbsp;layer&lt;br&gt;&lt;/b&gt;" style="rounded=1;whiteSpace=wrap;html=1;fillColor=#e1d5e7;strokeColor=#9673a6;shadow=0;glass=0;sketch=1;curveFitting=1;jiggle=2;arcSize=8;" parent="CQDy8fWoHzWiUnDKN8MW-14" vertex="1">
          <mxGeometry x="70" y="210" width="250" height="100" as="geometry" />
        </mxCell>
        <mxCell id="LVMC560kpPJ9mfJXyLy--21" value="&lt;div&gt;&lt;b&gt;sirf.STIR (listmode) objective function&lt;/b&gt;&lt;font color=&quot;#000000&quot;&gt;&lt;b&gt;&lt;br&gt;&lt;/b&gt;&lt;/font&gt;&lt;/div&gt;&lt;div&gt;&lt;b&gt;including&lt;/b&gt;&lt;/div&gt;&lt;font color=&quot;#000000&quot;&gt;&lt;b&gt;sirf.STIR acquired (listmode) PET data&amp;nbsp;&lt;br&gt;sirf.STIR acquisition model&lt;/b&gt;&lt;/font&gt;" style="rounded=1;whiteSpace=wrap;html=1;fillColor=#d5e8d4;strokeColor=#82b366;sketch=1;curveFitting=1;jiggle=2;" parent="CQDy8fWoHzWiUnDKN8MW-14" vertex="1">
          <mxGeometry x="77.5" y="370" width="235" height="100" as="geometry" />
        </mxCell>
        <mxCell id="gO14tqI6qxzoFVm-JLHP-1" value="" style="endArrow=classic;html=1;rounded=0;exitX=0.5;exitY=0;exitDx=0;exitDy=0;entryX=0.5;entryY=1;entryDx=0;entryDy=0;strokeWidth=2;" parent="CQDy8fWoHzWiUnDKN8MW-14" source="LVMC560kpPJ9mfJXyLy--21" target="LVMC560kpPJ9mfJXyLy--1" edge="1">
          <mxGeometry width="50" height="50" relative="1" as="geometry">
            <mxPoint x="270" y="320" as="sourcePoint" />
            <mxPoint x="320" y="270" as="targetPoint" />
          </mxGeometry>
        </mxCell>
        <mxCell id="CQDy8fWoHzWiUnDKN8MW-1" value="&lt;b style=&quot;font-size: 16px;&quot;&gt;&lt;font style=&quot;font-size: 16px;&quot;&gt;NN with trainable&amp;nbsp;&lt;/font&gt;&lt;/b&gt;&lt;div style=&quot;font-size: 16px;&quot;&gt;&lt;b style=&quot;&quot;&gt;&lt;font style=&quot;font-size: 16px;&quot;&gt;weights&lt;/font&gt;&lt;/b&gt;&lt;/div&gt;" style="rounded=1;whiteSpace=wrap;html=1;fillColor=#f8cecc;strokeColor=#b85450;shadow=0;glass=0;sketch=1;curveFitting=1;jiggle=2;arcSize=8;" parent="CQDy8fWoHzWiUnDKN8MW-14" vertex="1">
          <mxGeometry x="70" y="80" width="250" height="70" as="geometry" />
        </mxCell>
        <mxCell id="CQDy8fWoHzWiUnDKN8MW-2" value="" style="strokeWidth=2;html=1;shape=mxgraph.flowchart.annotation_2;align=left;labelPosition=right;pointerEvents=1;" parent="CQDy8fWoHzWiUnDKN8MW-14" vertex="1">
          <mxGeometry y="100" width="70" height="180" as="geometry" />
        </mxCell>
        <mxCell id="CQDy8fWoHzWiUnDKN8MW-3" value="&lt;font style=&quot;font-weight: bold; font-size: 14px;&quot;&gt;fusion &lt;/font&gt;&lt;font style=&quot;font-size: 12px;&quot;&gt;(e.g. weighted sum)&lt;/font&gt;" style="whiteSpace=wrap;html=1;fillColor=#fff2cc;strokeColor=#d6b656;sketch=1;curveFitting=1;jiggle=2;rotation=-90;" parent="CQDy8fWoHzWiUnDKN8MW-14" vertex="1">
          <mxGeometry x="273.69" y="180.99" width="223.66" height="30" as="geometry" />
        </mxCell>
        <mxCell id="CQDy8fWoHzWiUnDKN8MW-4" value="" style="endArrow=classic;html=1;rounded=0;entryX=0.25;entryY=0;entryDx=0;entryDy=0;exitX=1;exitY=0.5;exitDx=0;exitDy=0;strokeWidth=2;" parent="CQDy8fWoHzWiUnDKN8MW-14" source="LVMC560kpPJ9mfJXyLy--1" target="CQDy8fWoHzWiUnDKN8MW-3" edge="1">
          <mxGeometry width="50" height="50" relative="1" as="geometry">
            <mxPoint x="250" y="310" as="sourcePoint" />
            <mxPoint x="300" y="260" as="targetPoint" />
            <Array as="points" />
          </mxGeometry>
        </mxCell>
        <mxCell id="CQDy8fWoHzWiUnDKN8MW-6" value="" style="endArrow=classic;html=1;rounded=0;exitX=1;exitY=0.5;exitDx=0;exitDy=0;entryX=0.75;entryY=0;entryDx=0;entryDy=0;strokeWidth=2;" parent="CQDy8fWoHzWiUnDKN8MW-14" source="CQDy8fWoHzWiUnDKN8MW-1" target="CQDy8fWoHzWiUnDKN8MW-3" edge="1">
          <mxGeometry width="50" height="50" relative="1" as="geometry">
            <mxPoint x="250" y="310" as="sourcePoint" />
            <mxPoint x="360" y="130" as="targetPoint" />
          </mxGeometry>
        </mxCell>
        <mxCell id="CQDy8fWoHzWiUnDKN8MW-7" value="&lt;font style=&quot;font-size: 14px;&quot;&gt;&lt;b&gt;ReLU&lt;/b&gt;&lt;/font&gt;" style="rounded=0;whiteSpace=wrap;html=1;fillColor=#ffe6cc;strokeColor=#d79b00;sketch=1;curveFitting=1;jiggle=2;" parent="CQDy8fWoHzWiUnDKN8MW-14" vertex="1">
          <mxGeometry x="427.35" y="165.98999999999998" width="70" height="60" as="geometry" />
        </mxCell>
        <mxCell id="CQDy8fWoHzWiUnDKN8MW-9" value="" style="endArrow=classic;html=1;rounded=0;exitX=0.5;exitY=1;exitDx=0;exitDy=0;strokeWidth=2;" parent="CQDy8fWoHzWiUnDKN8MW-14" source="CQDy8fWoHzWiUnDKN8MW-3" target="CQDy8fWoHzWiUnDKN8MW-7" edge="1">
          <mxGeometry width="50" height="50" relative="1" as="geometry">
            <mxPoint x="263" y="300" as="sourcePoint" />
            <mxPoint x="313" y="250" as="targetPoint" />
          </mxGeometry>
        </mxCell>
        <mxCell id="CQDy8fWoHzWiUnDKN8MW-10" value="&lt;b&gt;x&lt;sub&gt;OSEM&lt;/sub&gt;&lt;/b&gt;" style="text;html=1;align=center;verticalAlign=middle;resizable=0;points=[];autosize=1;strokeColor=none;fillColor=none;" parent="CQDy8fWoHzWiUnDKN8MW-14" vertex="1">
          <mxGeometry x="314" y="262" width="60" height="30" as="geometry" />
        </mxCell>
        <mxCell id="CQDy8fWoHzWiUnDKN8MW-11" value="&lt;b&gt;x&lt;span style=&quot;font-size: 10px;&quot;&gt;&lt;sub&gt;NN&lt;/sub&gt;&lt;/span&gt;&lt;/b&gt;" style="text;html=1;align=center;verticalAlign=middle;resizable=0;points=[];autosize=1;strokeColor=none;fillColor=none;" parent="CQDy8fWoHzWiUnDKN8MW-14" vertex="1">
          <mxGeometry x="324" y="90" width="40" height="30" as="geometry" />
        </mxCell>
        <mxCell id="CQDy8fWoHzWiUnDKN8MW-36" value="&lt;b&gt;&lt;font style=&quot;font-size: 17px;&quot;&gt;UNROLLED UPDATE 1&lt;/font&gt;&lt;/b&gt;" style="text;html=1;align=center;verticalAlign=middle;whiteSpace=wrap;rounded=0;" parent="CQDy8fWoHzWiUnDKN8MW-14" vertex="1">
          <mxGeometry x="111" y="10" width="280" height="30" as="geometry" />
        </mxCell>
        <mxCell id="CQDy8fWoHzWiUnDKN8MW-15" value="" style="group" parent="1" vertex="1" connectable="0">
          <mxGeometry x="814" y="60" width="520" height="510" as="geometry" />
        </mxCell>
        <mxCell id="CQDy8fWoHzWiUnDKN8MW-16" value="" style="rounded=0;whiteSpace=wrap;html=1;fillColor=#f5f5f5;fontColor=#333333;strokeColor=#666666;" parent="CQDy8fWoHzWiUnDKN8MW-15" vertex="1">
          <mxGeometry x="20" width="500" height="510" as="geometry" />
        </mxCell>
        <mxCell id="CQDy8fWoHzWiUnDKN8MW-17" value="&lt;b style=&quot;font-size: 16px;&quot;&gt;custom pytorch&lt;br&gt;OSEM update&lt;br&gt;&amp;nbsp;layer&lt;br&gt;&lt;/b&gt;" style="rounded=1;whiteSpace=wrap;html=1;fillColor=#e1d5e7;strokeColor=#9673a6;shadow=0;glass=0;sketch=1;curveFitting=1;jiggle=2;arcSize=8;" parent="CQDy8fWoHzWiUnDKN8MW-15" vertex="1">
          <mxGeometry x="70" y="210" width="250" height="100" as="geometry" />
        </mxCell>
        <mxCell id="CQDy8fWoHzWiUnDKN8MW-18" value="&lt;div&gt;&lt;b&gt;sirf.STIR (listmode) objective function&lt;/b&gt;&lt;font color=&quot;#000000&quot;&gt;&lt;b&gt;&lt;br&gt;&lt;/b&gt;&lt;/font&gt;&lt;/div&gt;&lt;div&gt;&lt;b&gt;including&lt;/b&gt;&lt;/div&gt;&lt;font color=&quot;#000000&quot;&gt;&lt;b&gt;sirf.STIR acquired (listmode) PET data&amp;nbsp;&lt;br&gt;sirf.STIR acquisition model&lt;/b&gt;&lt;/font&gt;" style="rounded=1;whiteSpace=wrap;html=1;fillColor=#d5e8d4;strokeColor=#82b366;sketch=1;curveFitting=1;jiggle=2;" parent="CQDy8fWoHzWiUnDKN8MW-15" vertex="1">
          <mxGeometry x="77.5" y="370" width="235" height="100" as="geometry" />
        </mxCell>
        <mxCell id="CQDy8fWoHzWiUnDKN8MW-19" value="" style="endArrow=classic;html=1;rounded=0;exitX=0.5;exitY=0;exitDx=0;exitDy=0;entryX=0.5;entryY=1;entryDx=0;entryDy=0;" parent="CQDy8fWoHzWiUnDKN8MW-15" source="CQDy8fWoHzWiUnDKN8MW-18" target="CQDy8fWoHzWiUnDKN8MW-17" edge="1">
          <mxGeometry width="50" height="50" relative="1" as="geometry">
            <mxPoint x="270" y="320" as="sourcePoint" />
            <mxPoint x="320" y="270" as="targetPoint" />
          </mxGeometry>
        </mxCell>
        <mxCell id="CQDy8fWoHzWiUnDKN8MW-20" value="&lt;b style=&quot;font-size: 16px;&quot;&gt;&lt;font style=&quot;font-size: 16px;&quot;&gt;NN with trainable&amp;nbsp;&lt;/font&gt;&lt;/b&gt;&lt;div style=&quot;font-size: 16px;&quot;&gt;&lt;b style=&quot;&quot;&gt;&lt;font style=&quot;font-size: 16px;&quot;&gt;weights&lt;/font&gt;&lt;/b&gt;&lt;/div&gt;" style="rounded=1;whiteSpace=wrap;html=1;fillColor=#f8cecc;strokeColor=#b85450;shadow=0;glass=0;sketch=1;curveFitting=1;jiggle=2;arcSize=8;" parent="CQDy8fWoHzWiUnDKN8MW-15" vertex="1">
          <mxGeometry x="70" y="80" width="250" height="70" as="geometry" />
        </mxCell>
        <mxCell id="CQDy8fWoHzWiUnDKN8MW-21" value="" style="strokeWidth=2;html=1;shape=mxgraph.flowchart.annotation_2;align=left;labelPosition=right;pointerEvents=1;" parent="CQDy8fWoHzWiUnDKN8MW-15" vertex="1">
          <mxGeometry y="100" width="70" height="180" as="geometry" />
        </mxCell>
        <mxCell id="CQDy8fWoHzWiUnDKN8MW-22" value="&lt;font style=&quot;font-weight: bold; font-size: 14px;&quot;&gt;fusion &lt;/font&gt;&lt;font style=&quot;font-size: 12px;&quot;&gt;(e.g. weighted sum)&lt;/font&gt;" style="whiteSpace=wrap;html=1;fillColor=#fff2cc;strokeColor=#d6b656;sketch=1;curveFitting=1;jiggle=2;rotation=-90;" parent="CQDy8fWoHzWiUnDKN8MW-15" vertex="1">
          <mxGeometry x="273.69" y="180.99" width="223.66" height="30" as="geometry" />
        </mxCell>
        <mxCell id="CQDy8fWoHzWiUnDKN8MW-23" value="" style="endArrow=classic;html=1;rounded=0;entryX=0.25;entryY=0;entryDx=0;entryDy=0;exitX=1;exitY=0.5;exitDx=0;exitDy=0;strokeWidth=2;" parent="CQDy8fWoHzWiUnDKN8MW-15" source="CQDy8fWoHzWiUnDKN8MW-17" target="CQDy8fWoHzWiUnDKN8MW-22" edge="1">
          <mxGeometry width="50" height="50" relative="1" as="geometry">
            <mxPoint x="250" y="310" as="sourcePoint" />
            <mxPoint x="300" y="260" as="targetPoint" />
            <Array as="points" />
          </mxGeometry>
        </mxCell>
        <mxCell id="CQDy8fWoHzWiUnDKN8MW-24" value="" style="endArrow=classic;html=1;rounded=0;exitX=1;exitY=0.5;exitDx=0;exitDy=0;entryX=0.75;entryY=0;entryDx=0;entryDy=0;strokeWidth=2;" parent="CQDy8fWoHzWiUnDKN8MW-15" source="CQDy8fWoHzWiUnDKN8MW-20" target="CQDy8fWoHzWiUnDKN8MW-22" edge="1">
          <mxGeometry width="50" height="50" relative="1" as="geometry">
            <mxPoint x="250" y="310" as="sourcePoint" />
            <mxPoint x="360" y="130" as="targetPoint" />
          </mxGeometry>
        </mxCell>
        <mxCell id="CQDy8fWoHzWiUnDKN8MW-25" value="&lt;font style=&quot;font-size: 14px;&quot;&gt;&lt;b&gt;ReLU&lt;/b&gt;&lt;/font&gt;" style="rounded=0;whiteSpace=wrap;html=1;fillColor=#ffe6cc;strokeColor=#d79b00;sketch=1;curveFitting=1;jiggle=2;" parent="CQDy8fWoHzWiUnDKN8MW-15" vertex="1">
          <mxGeometry x="427.35" y="165.98999999999998" width="70" height="60" as="geometry" />
        </mxCell>
        <mxCell id="CQDy8fWoHzWiUnDKN8MW-26" value="" style="endArrow=classic;html=1;rounded=0;exitX=0.5;exitY=1;exitDx=0;exitDy=0;strokeWidth=2;" parent="CQDy8fWoHzWiUnDKN8MW-15" source="CQDy8fWoHzWiUnDKN8MW-22" target="CQDy8fWoHzWiUnDKN8MW-25" edge="1">
          <mxGeometry width="50" height="50" relative="1" as="geometry">
            <mxPoint x="263" y="300" as="sourcePoint" />
            <mxPoint x="313" y="250" as="targetPoint" />
          </mxGeometry>
        </mxCell>
        <mxCell id="CQDy8fWoHzWiUnDKN8MW-27" value="&lt;b&gt;x&lt;sub&gt;OSEM&lt;/sub&gt;&lt;/b&gt;" style="text;html=1;align=center;verticalAlign=middle;resizable=0;points=[];autosize=1;strokeColor=none;fillColor=none;" parent="CQDy8fWoHzWiUnDKN8MW-15" vertex="1">
          <mxGeometry x="314" y="262" width="60" height="30" as="geometry" />
        </mxCell>
        <mxCell id="CQDy8fWoHzWiUnDKN8MW-28" value="&lt;b&gt;x&lt;span style=&quot;font-size: 10px;&quot;&gt;&lt;sub&gt;NN&lt;/sub&gt;&lt;/span&gt;&lt;/b&gt;" style="text;html=1;align=center;verticalAlign=middle;resizable=0;points=[];autosize=1;strokeColor=none;fillColor=none;" parent="CQDy8fWoHzWiUnDKN8MW-15" vertex="1">
          <mxGeometry x="324" y="90" width="40" height="30" as="geometry" />
        </mxCell>
        <mxCell id="CQDy8fWoHzWiUnDKN8MW-38" value="&lt;b&gt;&lt;font style=&quot;font-size: 17px;&quot;&gt;UNROLLED UPDATE N&lt;/font&gt;&lt;/b&gt;" style="text;html=1;align=center;verticalAlign=middle;whiteSpace=wrap;rounded=0;" parent="CQDy8fWoHzWiUnDKN8MW-15" vertex="1">
          <mxGeometry x="130" y="10" width="280" height="30" as="geometry" />
        </mxCell>
        <mxCell id="CQDy8fWoHzWiUnDKN8MW-32" value="" style="endArrow=classic;html=1;rounded=0;exitX=1;exitY=0.5;exitDx=0;exitDy=0;strokeWidth=2;" parent="1" source="CQDy8fWoHzWiUnDKN8MW-7" edge="1">
          <mxGeometry width="50" height="50" relative="1" as="geometry">
            <mxPoint x="980" y="390" as="sourcePoint" />
            <mxPoint x="740" y="256" as="targetPoint" />
          </mxGeometry>
        </mxCell>
        <mxCell id="CQDy8fWoHzWiUnDKN8MW-33" value="" style="ellipse;whiteSpace=wrap;html=1;aspect=fixed;fillColor=#000000;strokeColor=none;" parent="1" vertex="1">
          <mxGeometry x="750" y="250" width="10" height="10" as="geometry" />
        </mxCell>
        <mxCell id="CQDy8fWoHzWiUnDKN8MW-34" value="" style="ellipse;whiteSpace=wrap;html=1;aspect=fixed;fillColor=#000000;strokeColor=none;" parent="1" vertex="1">
          <mxGeometry x="770" y="250" width="10" height="10" as="geometry" />
        </mxCell>
        <mxCell id="CQDy8fWoHzWiUnDKN8MW-35" value="" style="ellipse;whiteSpace=wrap;html=1;aspect=fixed;fillColor=#000000;strokeColor=none;" parent="1" vertex="1">
          <mxGeometry x="790" y="250" width="10" height="10" as="geometry" />
        </mxCell>
        <mxCell id="CQDy8fWoHzWiUnDKN8MW-41" value="" style="endArrow=classic;html=1;rounded=0;strokeWidth=2;entryX=0.009;entryY=0.556;entryDx=0;entryDy=0;entryPerimeter=0;exitX=1;exitY=0.5;exitDx=0;exitDy=0;" parent="1" source="CQDy8fWoHzWiUnDKN8MW-25" target="LVMC560kpPJ9mfJXyLy--36" edge="1">
          <mxGeometry width="50" height="50" relative="1" as="geometry">
            <mxPoint x="1330" y="260" as="sourcePoint" />
            <mxPoint x="1337.35" y="255.7" as="targetPoint" />
          </mxGeometry>
        </mxCell>
        <mxCell id="CQDy8fWoHzWiUnDKN8MW-42" value="&lt;b&gt;&lt;font style=&quot;font-size: 20px;&quot;&gt;Unrolled variational network for reconstruction&lt;/font&gt;&lt;/b&gt;" style="text;html=1;align=center;verticalAlign=middle;whiteSpace=wrap;rounded=0;" parent="1" vertex="1">
          <mxGeometry x="377" y="10" width="770" height="30" as="geometry" />
        </mxCell>
      </root>
    </mxGraphModel>
  </diagram>
</mxfile>
